<!-- Included from the Google Noto Emoji project, licensed under the Apache License, Version 2.0 -->
<!-- Source: https://raw.githubusercontent.com/googlefonts/noto-emoji/refs/heads/main/svg/emoji_u1f4dc.svg -->
<svg xmlns="http://www.w3.org/2000/svg" viewBox="0 0 128 128"><path d="M22.13 18.65h23.19v15.08H22.13z" fill="#d68b52"/><ellipse cx="114.59" cy="108.83" rx="9.41" ry="12.65" fill="#f2bd72"/><g fill="#ffd8a1"><use href="#B"/><use href="#B"/></g><path d="M32.26 100.75l.09-9.1s59.53 6.46 77.04-14.12v22.99l-77.13.23z" fill="#f2bd72"/><g opacity=".6" fill="none" stroke="#9e673c" stroke-width="3.005" stroke-linecap="round" stroke-miterlimit="10"><path d="M45.52 30.1h3.52c.89.02 1.72.14 2.63.05.98-.1 1.96-.29 2.96-.26 1.22.04 2.39.41 3.62.41.6 0 1.14-.17 1.73-.2h6.34m12.69 0c.73 0 1.49.06 2.21-.05 1.12-.17 2.19-.63 3.36-.53 1.25.11 2.31.84 3.54 1.03 1.99.29 3.86-.9 5.87-1.09.64-.06 1.28-.02 1.92.03l4.31.53m-54.7 23.49h3.03c1.39-.14 2.73-.63 4.16-.56 1.44.07 2.76.7 4.17.95 1.94.33 3.89-.08 5.81-.33 2.05-.27 4-.05 6.06-.05h7.7m10.32-.01h2.22c1.25.02 2.18-.38 3.37-.61 1.69-.33 3.38.19 5.05.36l3.75.25" opacity=".77"/><use href="#C" opacity=".77"/><use href="#D" opacity=".77"/><use href="#C" y="-58.48" opacity=".77"/><use href="#D" y="-58.48" opacity=".77"/><use href="#E" opacity=".77"/><use href="#E" y="23.39" opacity=".77"/><path d="M58.39 88.62c.52.01.99-.11 1.5-.13.74-.04 1.47.17 2.2.28 1.75.26 3.58.39 5.32.01.98-.22 1.91-.59 2.91-.73 2.51-.36 4.99.76 7.54.75 2.2-.02 4.56-1.02 6.73-.44 1.42.37 2.88.28 4.38.28" opacity=".77"/></g><path d="M38.25 96.18v6.17h84.41c-1.64-3.69-4.64-6.17-8.07-6.17h-5.18-71.16z" fill="#fcebcd"/><ellipse cx="38.73" cy="108.83" rx="9.41" ry="12.65" fill="#f2bd72"/><g fill="#784d30"><path d="M45.71 108.17c0 5.33-3.34 8.35-6.92 9.33-4.61 1.26-6.53.16-6.53.16V98.68s3.25-.82 6.72.16c3.54.99 6.73 4 6.73 9.33z"/><ellipse cx="33.48" cy="108.17" rx="6.72" ry="9.65"/><ellipse cx="33.48" cy="108.18" rx="6.72" ry="9.65"/></g><g fill="#ba793e"><ellipse cx="24.86" cy="108.18" rx="4.46" ry="4.5"/><path d="M33.02 105.44c1.27.39 2.82 3.08.18 5.66-.67.65.02 2.09.48 3.3.58 1.54 1 2.37 2.34 1.45 1.8-1.22 3.51-4.71 3.51-7.67 0-4.79-2.71-8.68-6.05-8.68-1.72 0-3.06.55-4.19 2.88-.5 1.04-.55 2.37 1.04 2.53 0 .01 1.78.26 2.69.53z"/></g><ellipse cx="22.34" cy="20.09" rx="10.09" ry="13.57" fill="#f2bd72"/><g fill="#784d30"><path d="M29.32 19.43c0 5.33-3.34 8.35-6.92 9.33-4.61 1.26-6.53.16-6.53.16V9.94s3.25-.82 6.72.16c3.53.98 6.73 4 6.73 9.33z"/><ellipse cx="17.09" cy="19.43" rx="6.72" ry="9.65"/><ellipse cx="17.09" cy="19.44" rx="6.72" ry="9.65"/></g><g fill="#ba793e"><ellipse cx="8.46" cy="19.44" rx="4.46" ry="4.5"/><path d="M16.62 16.7c1.27.39 2.82 3.08.18 5.66-.67.65.02 2.09.48 3.3.58 1.54 1 2.37 2.34 1.45 1.8-1.22 3.51-4.71 3.51-7.67 0-4.79-2.71-8.68-6.05-8.68-1.72 0-3.06.55-4.19 2.88-.5 1.04-.55 2.37 1.04 2.53 0 .01 1.79.25 2.69.53z"/></g><script/><defs ><path id="B" d="M114.59 96.18h-5.18l.04-74.11c0-10.7-7.61-15.55-10.42-15.55h-76.9s10.1 1.21 10.23 15.55v79.61c0 16.81 6.37 19.79 6.37 19.79h75.38c.07 0 .14-.01.21-.02.09 0 .18.02.27.02 5.2 0 9.41-5.66 9.41-12.65 0-6.97-4.21-12.64-9.41-12.64z"/><path id="C" d="M68.56 76.96c1.34 0 2.74-.09 4.05.09 2.27.32 4.18-.39 6.41-.62 2.09-.22 4.18.2 6.28.37 2.18.18 4.37.1 6.56.02 2.27-.08 4.54.13 6.83.13"/><path id="D" d="M44.58 76.96c1.96 0 3.89.37 5.85.23l1.99-.17c1.33-.07 2.67.23 3.98.08.87-.1 1.7-.14 2.58-.14"/><path id="E" d="M45.52 41.87l2.83.11c1.68.12 3.24-.64 4.87-.81 2.05-.21 4.07.45 6.1.75 2.01.3 4.05.12 6.07 0l2.8-.12c.99.02 1.93.33 2.92.32 1.27-.01 2.44-.57 3.69-.76 2.78-.43 5.55.97 8.36.78.92-.06 1.81-.29 2.72-.38 1.12-.11 2.25-.01 3.37.09l4.98.45"/></defs></svg>
